<?xml version="1.0" encoding="UTF-8"?>
<svg width="125px" height="158px" viewBox="0 0 125 158" version="1.1" xmlns="http://www.w3.org/2000/svg" xmlns:xlink="http://www.w3.org/1999/xlink">
    <!-- Generator: Sketch 42 (36781) - http://www.bohemiancoding.com/sketch -->
    <title>Group</title>
    <desc>Created with Sketch.</desc>
    <defs></defs>
    <g id="Page-1" stroke="none" stroke-width="1" fill="none" fill-rule="evenodd">
        <g id="Desktop-Landscape" transform="translate(-789.000000, -346.000000)" fill="#DDDDDD">
            <g id="Group" transform="translate(789.000000, 346.000000)">
                <path d="M13.8544928,157.26087 C6.65449275,157.26087 0.811014493,151.417391 0.811014493,144.217391 L0.811014493,23.5657971 C0.811014493,16.3634783 6.65449275,10.5223188 13.8544928,10.5223188 L30.7310145,10.5223188 C32.0805797,6.72637681 35.6933333,3.99942029 39.9414493,3.99942029 L54.1536232,3.99942029 C56.5281159,1.91710145 59.5889855,0.739130435 62.7681159,0.739130435 C65.9472464,0.739130435 69.0081159,1.91710145 71.3826087,3.99942029 L85.5947826,3.99942029 C89.8428986,3.99942029 93.4556522,6.72637681 94.8052174,10.5223188 L111.681739,10.5223188 C118.881739,10.5223188 124.725217,16.3634783 124.725217,23.5657971 L124.725217,144.217391 C124.725217,151.417391 118.881739,157.26087 111.681739,157.26087 L13.8544928,157.26087 Z M36.6811594,13.7826087 L36.6811594,23.5657971 C36.6811594,25.3675362 38.1397101,26.826087 39.9414493,26.826087 L85.5947826,26.826087 C87.3965217,26.826087 88.8550725,25.3675362 88.8550725,23.5657971 L88.8550725,13.7826087 C88.8550725,11.9808696 87.3965217,10.5223188 85.5947826,10.5223188 L68.4121739,10.5223188 C67.2782609,8.57449275 65.1773913,7.25971014 62.7681159,7.25971014 C60.3588406,7.25971014 58.257971,8.57449275 57.124058,10.5223188 L39.9414493,10.5223188 C38.1397101,10.5223188 36.6811594,11.9808696 36.6811594,13.7826087 Z M45.5136232,53.5831884 L31.6724638,67.4243478 L22.4504348,58.2023188 L27.0626087,53.5924638 L31.6724638,58.2023188 L40.8921739,48.9826087 L45.5136232,53.5831884 Z M49.7246377,56.2915942 L49.7246377,49.7710145 L101.898551,49.7710145 L101.898551,56.2915942 L49.7246377,56.2915942 Z M49.7246377,69.3350725 L49.7246377,62.8144928 L88.8550725,62.8144928 L88.8550725,69.3350725 L49.7246377,69.3350725 Z M45.5136232,86.084058 L31.6724638,99.915942 L22.4504348,90.693913 L27.0626087,86.084058 L31.6724638,90.693913 L40.8921739,81.4718841 L45.5136232,86.084058 Z M49.7246377,88.7808696 L49.7246377,82.2602899 L101.898551,82.2602899 L101.898551,88.7808696 L49.7246377,88.7808696 Z M49.7246377,101.824348 L49.7246377,95.3037681 L88.8550725,95.3037681 L88.8550725,101.824348 L49.7246377,101.824348 Z M45.5136232,118.691594 L31.6724638,132.523478 L22.4504348,123.301449 L27.0626087,118.691594 L31.6724638,123.301449 L40.8921739,114.081739 L45.5136232,118.691594 Z M49.7246377,121.390725 L49.7246377,114.870145 L101.898551,114.870145 L101.898551,121.390725 L49.7246377,121.390725 Z M49.7246377,134.434203 L49.7246377,127.913623 L88.8550725,127.913623 L88.8550725,134.434203 L49.7246377,134.434203 Z M10.5942029,23.5657971 L10.5942029,144.217391 C10.5942029,146.01913 12.0527536,147.477681 13.8544928,147.477681 L111.681739,147.477681 C113.483478,147.477681 114.942029,146.01913 114.942029,144.217391 L114.942029,23.5657971 C114.942029,21.7617391 113.483478,20.3055072 111.681739,20.3055072 L95.3756522,20.3055072 L95.3756522,23.5657971 C95.3756522,28.964058 90.9930435,33.3466667 85.5947826,33.3466667 L39.9414493,33.3466667 C34.5431884,33.3466667 30.1605797,28.964058 30.1605797,23.5657971 L30.1605797,20.3055072 L13.8544928,20.3055072 C12.0527536,20.3055072 10.5942029,21.7617391 10.5942029,23.5657971 Z" id="Combined-Shape"></path>
            </g>
        </g>
    </g>
</svg>